# xmcd
#
# Track frame offsets: 
#        150
#        18506
#        33680
#        57827
#        80505
#        103539
#        122769
#        139708
#        160521
#        170732
#        201395
#        219341
#        235386
#        245886
#        266831
#        286031
#
# Disc length: 4354 seconds
#
# Revision: 0
# Processed by: cddbd v1.5.1PL0 Copyright (c) Steve Scherf et al.
# Submitted via: ExactAudioCopy v0.95b2
#
DISCID=ea110010
DTITLE=Stevie Ray Vaughan - 2beers Blend
DYEAR=2005
DGENRE=Blues
TTITLE0=Shake For Me
TTITLE1=Testify
TTITLE2=Texas Flood
TTITLE3=Dirty Pool
TTITLE4=Lenny
TTITLE5=Life Without You
TTITLE6=You'll Be Mine
TTITLE7=Willie The Wimp (Live)
TTITLE8=Boot Hill
TTITLE9=Little Wing
TTITLE10=Chitlins Con Carne
TTITLE11=Taxman
TTITLE12=Travis Walk
TTITLE13=Tightrope
TTITLE14=Leave My Girl Alone
TTITLE15=Riviera Paradise
EXTD=
EXTT0=
EXTT1=
EXTT2=
EXTT3=
EXTT4=
EXTT5=
EXTT6=
EXTT7=
EXTT8=
EXTT9=
EXTT10=
EXTT11=
EXTT12=
EXTT13=
EXTT14=
EXTT15=
PLAYORDER=
